<svg width="11" height="14" viewBox="0 0 11 14" fill="none" xmlns="http://www.w3.org/2000/svg">
<path d="M10 8.38462V6.76923C10 5.62218 9.09338 4.69231 7.975 4.69231H7.075C6.70221 4.69231 6.4 4.38235 6.4 4V3.07692C6.4 1.92987 5.49338 1 4.375 1H3.25M5.5 6.53846V10.2308M7.3 8.38462H3.7M4.6 1H1.675C1.30221 1 1 1.30996 1 1.69231V12.3077C1 12.69 1.30221 13 1.675 13H9.325C9.69779 13 10 12.69 10 12.3077V6.53846C10 3.47965 7.58234 1 4.6 1Z" stroke="#0F172A" stroke-width="1.5" stroke-linecap="round" stroke-linejoin="round"/>
</svg>
