<svg width="23" height="25" viewBox="0 0 23 25" fill="none" xmlns="http://www.w3.org/2000/svg">
<path fill-rule="evenodd" clip-rule="evenodd" d="M20.6999 6.5625C20.6999 5.10951 19.6862 3.91387 18.3856 3.7655C18.2491 2.35181 17.1491 1.25 15.8124 1.25H14.0874C12.7506 1.25 11.6506 2.35181 11.5141 3.7655C10.5078 3.8803 9.67322 4.62212 9.34711 5.625H12.6499C14.2377 5.625 15.5249 7.02411 15.5249 8.75V17.5H18.1124C19.5414 17.5 20.6999 16.2408 20.6999 14.6875V6.5625ZM14.0874 3.125C13.611 3.125 13.2249 3.54473 13.2249 4.0625V4.375H16.6749V4.0625C16.6749 3.54473 16.2887 3.125 15.8124 3.125H14.0874Z" fill="#0F172A"/>
<path fill-rule="evenodd" clip-rule="evenodd" d="M3.44999 7.5C2.81486 7.5 2.29999 8.05964 2.29999 8.75V21.25C2.29999 21.9404 2.81486 22.5 3.44999 22.5H12.65C13.2851 22.5 13.8 21.9404 13.8 21.25V8.75C13.8 8.05964 13.2851 7.5 12.65 7.5H3.44999ZM11.3551 12.7075C11.6194 12.2767 11.5123 11.6947 11.1159 11.4075C10.7196 11.1202 10.1841 11.2367 9.91985 11.6675L7.05343 16.341L6.07237 15.2746C5.73554 14.9085 5.18944 14.9085 4.85261 15.2746C4.51578 15.6407 4.51578 16.2343 4.85261 16.6004L6.57761 18.4754C6.76032 18.674 7.01534 18.7731 7.27248 18.7454C7.52962 18.7178 7.7618 18.5662 7.90513 18.3325L11.3551 12.7075Z" fill="#0F172A"/>
</svg>
