<svg width="17" height="26" viewBox="0 0 17 26" fill="none" xmlns="http://www.w3.org/2000/svg">
<path d="M16 15.7938V12.5576C16 10.2597 14.489 8.39688 12.625 8.39688H11.125C10.5037 8.39688 10 7.77593 10 7.00996V5.16074C10 2.86283 8.48896 1 6.625 1H4.75M5.5 15.7937L8.5 19.4922M8.5 19.4922L11.5 15.7938M8.5 19.4922L8.5 12.0953M7 1H2.125C1.50368 1 1 1.62094 1 2.38691V23.6529C1 24.4189 1.50368 25.0398 2.125 25.0398H14.875C15.4963 25.0398 16 24.4189 16 23.6529V12.0953C16 5.96754 11.9706 1 7 1Z" stroke="#0F172A" stroke-width="1.5" stroke-linecap="round" stroke-linejoin="round"/>
</svg>
